<?xml version="1.0" encoding="utf-8"?>
<!-- Generator: Adobe Illustrator 22.1.0, SVG Export Plug-In . SVG Version: 6.00 Build 0)  -->
<svg version="1.1" id="Layer_1" xmlns="http://www.w3.org/2000/svg" xmlns:xlink="http://www.w3.org/1999/xlink" x="0px" y="0px"
	 viewBox="0 0 125 29.5" style="enable-background:new 0 0 125 29.5;" xml:space="preserve">
<style type="text/css">
	.st0{fill:#FFFFFF;}
</style>
<g>
	<g id="XMLID_85_">
		<path id="XMLID_118_" class="st0" d="M12.1,27.9l-1.3-6.2H4.7l-1.3,6.2H0L6.2,1.4h3.1l6.1,26.5H12.1z M7.7,6.6L5.2,18.8h4.9
			L7.7,6.6z"/>
		<path id="XMLID_115_" class="st0" d="M27.6,27.9L24,16.5h-2.9v11.4h-3.2V1.4h6c4,0,6.2,1.7,6.2,7.6c0,3.7-0.9,5.8-3.2,6.9l4.1,12
			H27.6z M23.9,4.3h-2.8v9.4h2.8c2.5,0,3-1.9,3-4.7S26.4,4.3,23.9,4.3z"/>
		<path id="XMLID_113_" class="st0" d="M43.8,26.7c-1,1-2.3,1.5-4.1,1.5c-2.1,0-3.5-0.8-4.5-1.9c-1.8-2-1.9-5-1.9-11.6
			s0.1-9.6,1.9-11.6c1-1.1,2.4-1.9,4.5-1.9c1.8,0,3.2,0.6,4.2,1.6c1.2,1.2,1.9,3.1,1.9,5.3h-3.2c0-1.2-0.2-2.3-0.8-3.1
			c-0.4-0.6-1.1-0.9-2.1-0.9s-1.7,0.4-2.2,1c-0.9,1.3-1.1,3.4-1.1,9.7s0.2,8.4,1.1,9.7c0.4,0.6,1.1,1,2.2,1c1,0,1.6-0.4,2.1-1
			c0.6-0.7,0.9-1.9,0.9-3h3.2C45.9,23.6,45.1,25.6,43.8,26.7z"/>
		<path id="XMLID_96_" class="st0" d="M58,27.9v-12h-5.9v12h-3.2V1.4h3.2V13H58V1.4h3.2v26.5H58z"/>
		<path id="XMLID_94_" class="st0" d="M65,27.9V1.4h3.2v26.5H65z"/>
		<path id="XMLID_92_" class="st0" d="M78.6,4.3v23.6h-3.2V4.3h-4.5V1.4H83v2.9H78.6z"/>
		<path id="XMLID_90_" class="st0" d="M85.7,27.9V1.4h10.2v2.9h-7v8.9H95v2.9h-6.1v9h7V28L85.7,27.9L85.7,27.9z"/>
		<path id="XMLID_88_" class="st0" d="M108.9,26.7c-1,1-2.3,1.5-4.1,1.5c-2.1,0-3.5-0.8-4.5-1.9c-1.8-2-1.9-5-1.9-11.6
			s0.1-9.6,1.9-11.6c1-1.1,2.4-1.9,4.5-1.9c1.8,0,3.2,0.6,4.2,1.6c1.2,1.2,1.9,3.1,1.9,5.3h-3.2c0-1.2-0.2-2.3-0.8-3.1
			c-0.4-0.6-1.1-0.9-2.1-0.9s-1.7,0.4-2.2,1c-0.9,1.3-1.1,3.4-1.1,9.7s0.2,8.4,1.1,9.7c0.4,0.6,1.1,1,2.2,1c1,0,1.6-0.4,2.1-1
			c0.6-0.7,0.9-1.9,0.9-3h3.2C110.9,23.6,110.2,25.6,108.9,26.7z"/>
		<path id="XMLID_86_" class="st0" d="M120.6,4.3v23.6h-3.2V4.3h-4.5V1.4H125v2.9H120.6z"/>
	</g>
</g>
</svg>
