<?xml version="1.0" encoding="utf-8"?>
<!-- Generator: Adobe Illustrator 22.1.0, SVG Export Plug-In . SVG Version: 6.00 Build 0)  -->
<svg version="1.1" id="Isolation_Mode" xmlns="http://www.w3.org/2000/svg" xmlns:xlink="http://www.w3.org/1999/xlink" x="0px"
	 y="0px" viewBox="0 0 125 27.7" style="enable-background:new 0 0 125 27.7;" xml:space="preserve">
<g>
	<g id="XMLID_85_">
		<path id="XMLID_118_" d="M12.1,27.1l-1.3-6.2H4.7l-1.3,6.2H0L6.2,0.6h3.1l6.1,26.5H12.1z M7.7,5.8L5.2,18h4.9L7.7,5.8z"/>
		<path id="XMLID_115_" d="M27.6,27.1L24,15.7h-2.9v11.4h-3.2V0.6h6c4,0,6.2,1.7,6.2,7.6c0,3.7-0.9,5.8-3.2,6.9l4.1,12H27.6z
			 M23.9,3.5h-2.8v9.4h2.8c2.5,0,3-1.9,3-4.7S26.4,3.5,23.9,3.5z"/>
		<path id="XMLID_113_" d="M43.8,25.9c-1,1-2.3,1.5-4.1,1.5c-2.1,0-3.5-0.8-4.5-1.9c-1.8-2-1.9-5-1.9-11.6s0.1-9.6,1.9-11.6
			c1-1.1,2.4-1.9,4.5-1.9c1.8,0,3.2,0.6,4.2,1.6c1.2,1.2,1.9,3.1,1.9,5.3h-3.2c0-1.2-0.2-2.3-0.8-3.1c-0.4-0.6-1.1-0.9-2.1-0.9
			s-1.7,0.4-2.2,1c-0.9,1.3-1.1,3.4-1.1,9.7s0.2,8.4,1.1,9.7c0.4,0.6,1.1,1,2.2,1c1,0,1.6-0.4,2.1-1c0.6-0.7,0.9-1.9,0.9-3h3.2
			C45.9,22.8,45.1,24.8,43.8,25.9z"/>
		<path id="XMLID_96_" d="M58,27.1v-12h-5.9v12h-3.2V0.6h3.2v11.6H58V0.6h3.2v26.5H58z"/>
		<path id="XMLID_94_" d="M65,27.1V0.6h3.2v26.5H65z"/>
		<path id="XMLID_92_" d="M78.6,3.5v23.6h-3.2V3.5h-4.5V0.6H83v2.9H78.6z"/>
		<path id="XMLID_90_" d="M85.7,27.1V0.6h10.2v2.9h-7v8.9H95v2.9h-6.1v9h7v2.9L85.7,27.1L85.7,27.1z"/>
		<path id="XMLID_88_" d="M108.9,25.9c-1,1-2.3,1.5-4.1,1.5c-2.1,0-3.5-0.8-4.5-1.9c-1.8-2-1.9-5-1.9-11.6s0.1-9.6,1.9-11.6
			c1-1.1,2.4-1.9,4.5-1.9c1.8,0,3.2,0.6,4.2,1.6c1.2,1.2,1.9,3.1,1.9,5.3h-3.2c0-1.2-0.2-2.3-0.8-3.1c-0.4-0.6-1.1-0.9-2.1-0.9
			s-1.7,0.4-2.2,1c-0.9,1.3-1.1,3.4-1.1,9.7s0.2,8.4,1.1,9.7c0.4,0.6,1.1,1,2.2,1c1,0,1.6-0.4,2.1-1c0.6-0.7,0.9-1.9,0.9-3h3.2
			C110.9,22.8,110.2,24.8,108.9,25.9z"/>
		<path id="XMLID_86_" d="M120.6,3.5v23.6h-3.2V3.5h-4.5V0.6H125v2.9H120.6z"/>
	</g>
</g>
</svg>
